<svg xmlns="http://www.w3.org/2000/svg" width="24" height="24" viewBox="0 0 24 24">
    <g fill="none" fill-rule="evenodd">
        <path d="M0 23.955h23.955V0H0z"/>
        <path fill="#464646" d="M7.286 9.461c.056-.071.072-.164.049-.282a.37.37 0 0 0-.158-.254c-.082-.053-.194-.066-.333-.039l-.45.09.145.727.44-.088c.146-.029.25-.08.307-.154"/>
        <path fill="#464646" d="M14.39 10.962V8.48h1.223c.47 0 1.048.352 1.263.767l.791 1.602c.02.04.042.076.065.112H14.39zm1.738 5.771a.936.936 0 0 1 0-1.869.936.936 0 0 1 0 1.87zm-5.046-6.226l-.573-2.89 2.003-.398.103.521-1.352.269.122.616 1.16-.23.104.52-1.16.231.14.71 1.357-.27.103.522-2.007.399zm-2.263.449l-.573-2.89 2.003-.398.103.522L9 8.458l.122.616 1.16-.23.104.521-1.16.23.14.71 1.357-.269.103.522-2.007.398zm-.92.183l-.013-.008c-.07-.036-.125-.106-.163-.21a1.817 1.817 0 0 1-.08-.276l-.039-.198c-.025-.127-.079-.22-.16-.275-.081-.055-.186-.07-.311-.045l-.49.097.222 1.12-.65.13-.575-2.891 1.101-.219c.328-.065.605-.04.823.074.22.116.36.314.414.587a.677.677 0 0 1-.043.423.8.8 0 0 1-.212.27.611.611 0 0 1 .327.172c.1.106.17.248.204.424l.041.206c.015.074.04.151.077.229a.302.302 0 0 0 .126.147l.02.01.02.106-.638.127zm-1.072 5.594a.936.936 0 0 1 0-1.869.936.936 0 0 1 0 1.87zm-2.468-6.102l.231 1.165-.65.129-.574-2.89 2.02-.402.104.522-1.37.272.135.683 1.174-.233.104.521-1.174.233zm15.61.474a4.706 4.706 0 0 1-.204-.046c-.68-.177-1.019-.283-1.256-.74l-.889-1.8c-.284-.548-1.017-.994-1.634-.994H14.39V6.298a.665.665 0 0 0-.664-.664l-10.594.01c-.356 0-.625.284-.625.66v9.185c0 .366.298.664.664.664H4.33a2.526 2.526 0 0 0 2.497 2.168c1.27 0 2.324-.944 2.497-2.168h4.221c.028 0 .057-.001.085-.003a2.526 2.526 0 0 0 2.498 2.17c1.27 0 2.324-.943 2.497-2.167h1.66c.64 0 1.162-.521 1.162-1.163v-1.996c0-1.58-.889-1.766-1.477-1.89z"/>
    </g>
</svg>
