<svg xmlns="http://www.w3.org/2000/svg" width="24" height="24" viewBox="0 0 24 24">
    <g fill="none" fill-rule="evenodd">
        <path d="M0 23.955h23.955V0H0z"/>
        <path fill="#DEDFE0" d="M17.053 18.367a1.286 1.286 0 0 1-.244.765c-.056.064-.096.096-.119.096H7.264c-.022 0-.062-.032-.119-.096a1.288 1.288 0 0 1-.244-.765V7.627h10.152v10.74zM9.995 4.851a.319.319 0 0 1 .192-.124h3.592a.32.32 0 0 1 .192.124l.544 1.326H9.44l.555-1.326zM19.85 6.28a.353.353 0 0 0-.26-.102H16.09l-.793-1.892c-.113-.28-.317-.517-.612-.714-.294-.196-.593-.294-.895-.294h-3.625c-.302 0-.6.098-.895.294-.295.197-.499.434-.612.714l-.793 1.892h-3.5a.353.353 0 0 0-.262.102.353.353 0 0 0-.101.26v.725c0 .106.034.193.101.26a.353.353 0 0 0 .261.103h1.088v10.785c0 .627.177 1.162.532 1.603.355.442.782.663 1.28.663h9.426c.499 0 .926-.228 1.28-.685.356-.457.533-.999.533-1.626V7.627h1.088a.353.353 0 0 0 .26-.102.353.353 0 0 0 .102-.26v-.726a.353.353 0 0 0-.102-.26z"/>
        <path fill="#DEDFE0" d="M8.715 17.053h.725a.353.353 0 0 0 .26-.102.354.354 0 0 0 .102-.26v-6.526a.354.354 0 0 0-.102-.261.353.353 0 0 0-.26-.102h-.725a.353.353 0 0 0-.26.102.353.353 0 0 0-.103.26v6.526c0 .106.034.193.102.261a.353.353 0 0 0 .26.102M11.615 17.053h.725a.352.352 0 0 0 .26-.102.352.352 0 0 0 .102-.26v-6.526a.352.352 0 0 0-.102-.261.353.353 0 0 0-.26-.102h-.725a.353.353 0 0 0-.26.102.353.353 0 0 0-.103.26v6.526c0 .106.034.193.102.261a.353.353 0 0 0 .26.102M14.515 17.053h.725a.353.353 0 0 0 .26-.102.353.353 0 0 0 .103-.26v-6.526a.353.353 0 0 0-.102-.261.353.353 0 0 0-.26-.102h-.726a.353.353 0 0 0-.26.102.353.353 0 0 0-.102.26v6.526c0 .106.034.193.102.261a.353.353 0 0 0 .26.102"/>
    </g>
</svg>
