<svg xmlns="http://www.w3.org/2000/svg" width="24" height="24" viewBox="0 0 24 24">
    <g fill="none" fill-rule="evenodd">
        <path d="M0 23.955h23.955V0H0z"/>
        <path fill="#4A4A4A" d="M6.344 2.524l.01.006.003.002a.209.209 0 0 0-.019-.011l.006.003zm.024.015l.042.033-.022-.02a1.137 1.137 0 0 0-.034-.022l.014.009zm.08.057h-.002a.277.277 0 0 1 .009.006l-.005-.004h-.002v-.002zm.016.014l.016.013-.01-.01a.542.542 0 0 0-.017-.012l.011.009zm.174.19zm.035.061l-.015-.02c-.006-.009-.012-.014-.019-.022l.034.042zm.086.199zm.014.054v.002l.003.013a1.152 1.152 0 0 0-.005-.025l.002.01zM6.76 3.07l.012.065v.002l.004.01-.001-.018-.005-.024.001.002c.002.006.002.014.003.02v.002l.005.027.001.003-.005-.038-.002-.007-.002-.007v-.002l-.003-.015v-.003l-.005-.012.004.01v.005l.006.019-.003-.012v-.004l-.003-.007-.004-.015-.004-.012.001.011zm.018.083v.003-.006l-.001-.003v.006zm.008.032l.002.008.003.016.002.012a.508.508 0 0 1 .003.05v-.026l-.006-.041c0-.006-.005-.026-.004-.019zm13.306 3.55l-.001-.001h-.006.007zm.059.005l.03.004.017.004h.004l.004.001.014.004-.01-.003-.008-.002-.03-.006a.08.08 0 0 0-.009-.002h-.014.002zm.069.014l-.01-.003.01.003zm.495.34l-.004-.006.004.006zm.05.061zm.099.213l-.002-.006-.002-.006-.007-.016-.003-.008.014.036zm-.002-.004zm0 0l.004.011-.003-.01-.003-.007.002.006zm.022.072a.405.405 0 0 0-.026-.075l.026.075zm-14.09 4.738a.767.767 0 0 0 .042.245.756.756 0 0 0 .708.51c3.592.01 7.185.034 10.777 0a.795.795 0 0 0 .244-.045.758.758 0 0 0 .5-.714V8.442l-12.27-1.69v5.423zm10.99 5.97a.73.73 0 0 0-.295.067.737.737 0 0 0-.412.524.715.715 0 0 0 .207.654.738.738 0 0 0 .5.207.72.72 0 0 0 .505-.2.735.735 0 0 0 .218-.414.73.73 0 0 0-.22-.64.733.733 0 0 0-.502-.197zm-8.646 0a.728.728 0 0 0-.716.818.718.718 0 0 0 .215.427.736.736 0 0 0 .5.207.72.72 0 0 0 .66-.411.72.72 0 0 0-.158-.843.735.735 0 0 0-.483-.197h-.018zm2.462.005a1.475 1.475 0 0 1 .034.125 2.579 2.579 0 0 1-.132 1.598 2.566 2.566 0 0 1-1.021 1.188 2.554 2.554 0 0 1-3.22-.437 2.578 2.578 0 0 1-.626-1.184 2.566 2.566 0 0 1 .087-1.424l.001-.003a2.504 2.504 0 0 1-.27-.108 2.6 2.6 0 0 1-1.499-2.349V3.932L2.56 2.92l-.01-.004a1.209 1.209 0 0 1-.093-.048.92.92 0 0 1 .094-1.64.922.922 0 0 1 .724-.005l2.97 1.25.013.006.027.012.018.008.004.002.092.064-.007-.007-.017-.014a.378.378 0 0 0-.045-.029l.01.005a.292.292 0 0 0-.022-.012l.007.003.018.01.03.016.01.01h.001l.01.007.033.027.02.016-.007-.007-.012-.009.005.003.004.004a.348.348 0 0 0-.014-.012l.012.009.01.008.003.002.002.002.012.008.006.006.011.009.013.01a.68.68 0 0 1 .04.04c.012.012.026.023.036.036.024.029.045.06.067.09l-.003-.005-.006-.011a.33.33 0 0 0-.014-.022l.008.012a.45.45 0 0 1 .019.028l.006.01.008.013v.001l.006.009c.01.013.018.027.026.041l.008.013.006.014.005.009a.494.494 0 0 1 .034.075l.001.005.02.1v-.015l-.005-.027a.354.354 0 0 0-.01-.043L6.742 3v.002a.387.387 0 0 1 .015.056l.004.029-.001-.018-.005-.027.004.012v.005l.002.004.007.026.009.028v.032l.003.006.003.015V3.17v.002l.004.014.002.015.005.02v.016l.001.007.001.01a.77.77 0 0 1 .003.07v1.573l13.295 1.835h-.007l.024.002.023.003h.002l.007.002c.01 0 .01 0 .018.002l.018.001.022.007h.004l.026.006c.02.005.038.011.057.018l.002.001.027.01.03.013.053.026.024.012.094.067a.302.302 0 0 0-.07-.051l.002.001a.512.512 0 0 1 .038.022l.01.006.012.007.016.011.013.009.018.013c.014.01.014.01.026.022l.01.009.004.004-.007-.006-.009-.008a.34.34 0 0 0-.062-.042l.091.067.008.007.005.005.023.022.028.032.005.007.002.002.012.015.002.003.006.007.004.004.006.008a.48.48 0 0 1 .022.029l.015.022.004.005.013.02.006.01.003.006.01.016a.813.813 0 0 1 .01.021l.004.005a.67.67 0 0 1 .017.033l.002.004c.007.016.026.064.02.047a.239.239 0 0 0-.008-.02l.01.019a.422.422 0 0 1 .017.05l.003.005.007.024v.003l.002.002.002.007.005.02.005.017v.003l.003.009.005.038.002.005.002.007-.002-.014a.505.505 0 0 1 .003.015l.002.01.003.015.004.029a.536.536 0 0 1 .004.052c.003 1.528 0 3.056 0 4.584a2.45 2.45 0 0 1-.015.28 2.587 2.587 0 0 1-1.235 1.937 2.58 2.58 0 0 1-1.328.377c-3.597.011-7.194.008-10.79 0a2.737 2.737 0 0 1-.614-.075 2.766 2.766 0 0 1-.125-.034l-.004-.001c0 .302-.003.604 0 .905v.02a.756.756 0 0 0 .748.725c3.415.01 6.829 0 10.243 0a2.618 2.618 0 0 1 .594.07 2.55 2.55 0 0 1 1.025.507 2.599 2.599 0 0 1 .79 1.108 2.554 2.554 0 0 1-.46 2.547 2.58 2.58 0 0 1-1.233.798 2.56 2.56 0 0 1-2.25-.408 2.59 2.59 0 0 1-.86-1.13 2.557 2.557 0 0 1-.069-1.648l.001-.004H11.6z"/>
    </g>
</svg>
