<svg xmlns="http://www.w3.org/2000/svg" width="24" height="24" viewBox="0 0 24 24">
    <g fill="none" fill-rule="evenodd">
        <path d="M0 23.955h23.955V0H0z"/>
        <path fill="#464646" d="M15.767 4.489a5.512 5.512 0 0 0-3.907 1.616 5.511 5.511 0 0 0-3.906-1.616 5.529 5.529 0 0 0-3.912 9.435l-.004.003 1.122 1.122 6.105 6.106a.839.839 0 0 0 1.19 0l6.106-6.106 1.121-1.122-.003-.003a5.529 5.529 0 0 0-3.912-9.435m0 1.943c.958 0 1.858.373 2.535 1.05a3.59 3.59 0 0 1 .002 5.069l-1.372 1.374.002.002-1.103 1.104-3.97 3.97-3.953-3.952-1.121-1.122.002-.002-1.372-1.374a3.59 3.59 0 0 1 .002-5.069 3.562 3.562 0 0 1 2.535-1.05c.956 0 1.856.372 2.533 1.048l1.373 1.372 1.374-1.372a3.562 3.562 0 0 1 2.533-1.048"/>
    </g>
</svg>
