<svg xmlns="http://www.w3.org/2000/svg" width="24" height="24" viewBox="0 0 24 24">
    <g fill="none" fill-rule="evenodd">
        <path d="M0 23.955h23.955V0H0z"/>
        <path fill="#4A4A4A" d="M16.183 16.66H7.755v-6.087a4.196 4.196 0 0 1 4.214-4.214 4.196 4.196 0 0 1 4.214 4.214v6.086zm1.873-.937v-5.15c0-2.903-1.967-5.244-4.683-5.9v-.655c0-.75-.655-1.405-1.404-1.405-.75 0-1.405.656-1.405 1.405v.655c-2.716.656-4.682 2.997-4.682 5.9v5.15l-1.68 1.68a.66.66 0 0 0-.193.466v.004a.66.66 0 0 0 .66.66h14.6a.659.659 0 0 0 .66-.66v-.004a.66.66 0 0 0-.194-.466l-1.68-1.68zm-5.619 5.619c1.03 0 1.873-.843 1.873-1.873h-3.746c0 1.03.843 1.873 1.873 1.873z"/>
    </g>
</svg>
