<svg xmlns="http://www.w3.org/2000/svg" width="24" height="24" viewBox="0 0 24 24">
    <g fill="none" fill-rule="evenodd">
        <path d="M0 23.882h23.882V0H0z"/>
        <g fill="#464646">
            <path d="M9.563 9.673a.748.748 0 1 1 0 1.496.748.748 0 0 1 0-1.496M14.315 12.71a.748.748 0 1 1 0 1.495.748.748 0 0 1 0-1.496"/>
            <path d="M14.315 15.26a1.803 1.803 0 0 1-1.804-1.803c0-.997.807-1.804 1.804-1.804s1.804.807 1.804 1.804-.807 1.804-1.804 1.804zm-4.407-.186a.441.441 0 0 1-.678-.561l4.733-5.701a.441.441 0 0 1 .678.56l-4.733 5.702zM7.756 10.42c0-.997.806-1.804 1.804-1.804.997 0 1.804.807 1.804 1.804a1.805 1.805 0 0 1-3.608 0zm12.726 2.508l-.271-.37c-.294-.404-.301-.95-.011-1.36l.264-.374a1.167 1.167 0 0 0-.404-1.702l-.403-.216a1.162 1.162 0 0 1-.598-1.22l.077-.452c.118-.689-.4-1.327-1.1-1.356l-.458-.019a1.169 1.169 0 0 1-1.07-.84l-.129-.44a1.162 1.162 0 0 0-1.58-.744l-.422.18c-.458.198-.993.08-1.327-.293l-.304-.341A1.162 1.162 0 0 0 11 3.396l-.301.345c-.33.378-.862.502-1.324.312l-.425-.176a1.167 1.167 0 0 0-1.57.77l-.12.443a1.158 1.158 0 0 1-1.056.855l-.458.025c-.7.04-1.207.686-1.078 1.375l.084.451c.092.491-.143.986-.58 1.228l-.399.224a1.164 1.164 0 0 0-.374 1.705l.271.37c.294.403.301.95.011 1.36l-.264.374a1.167 1.167 0 0 0 .404 1.702l.403.216c.44.235.682.726.598 1.22l-.077.452c-.118.69.4 1.327 1.1 1.356l.458.019c.499.022.931.36 1.07.84l.129.44a1.162 1.162 0 0 0 1.58.744l.422-.18c.458-.198.993-.08 1.327.293l.304.341c.47.52 1.287.517 1.745-.015l.301-.344c.33-.378.862-.502 1.324-.312l.425.176a1.167 1.167 0 0 0 1.57-.77l.12-.443a1.158 1.158 0 0 1 1.056-.855l.458-.025c.7-.04 1.207-.686 1.078-1.375l-.084-.451a1.162 1.162 0 0 1 .58-1.228l.399-.224a1.162 1.162 0 0 0 .374-1.705z"/>
        </g>
    </g>
</svg>
